# xmcd
#
# Track frame offsets: 
#        150
#        30304
#        54657
#        84902
#        99354
#        137710
#        158477
#        183152
#        242401
#        280232
#
# Disc length: 4139 seconds
#
# Revision: 0
# Processed by: cddbd v1.5.2PL0 Copyright (c) Steve Scherf et al.
# Submitted via: ExactAudioCopy v1.0b3
#
DISCID=6e10290a
DTITLE=Ron Boots and John Kerr - Juxtaposition The Bochum Bonus
DYEAR=2015
DGENRE=Electronic
TTITLE0=Dreams of Different Days and Dawnings
TTITLE1=Between You and Me
TTITLE2=The Tears of the Fallen
TTITLE3=Juxtareprise
TTITLE4=The Map and the Labyrinth
TTITLE5=Distand Views
TTITLE6=Road to Nowhere
TTITLE7=Oceans of Commotions
TTITLE8=Transcendence #4996
TTITLE9=Still Loving You, Still Missing You
EXTD=
EXTT0=
EXTT1=
EXTT2=
EXTT3=
EXTT4=
EXTT5=
EXTT6=
EXTT7=
EXTT8=
EXTT9=
PLAYORDER=
